<?xml version="1.0" encoding="UTF-8" standalone="no"?>
<!-- Created with Inkscape (http://www.inkscape.org/) -->

<svg
   width="768"
   height="590"
   viewBox="0 0 203.2 156.10412"
   version="1.1"
   id="svg12"
   sodipodi:docname="xcompany.svg"
   inkscape:version="1.1.2 (b8e25be833, 2022-02-05)"
   xmlns:inkscape="http://www.inkscape.org/namespaces/inkscape"
   xmlns:sodipodi="http://sodipodi.sourceforge.net/DTD/sodipodi-0.dtd"
   xmlns="http://www.w3.org/2000/svg"
   xmlns:svg="http://www.w3.org/2000/svg">
  <sodipodi:namedview
     id="namedview14"
     pagecolor="#ffffff"
     bordercolor="#666666"
     borderopacity="1.0"
     inkscape:pageshadow="2"
     inkscape:pageopacity="0.0"
     inkscape:pagecheckerboard="0"
     inkscape:document-units="mm"
     showgrid="false"
     inkscape:zoom="0.71090067"
     inkscape:cx="417.07655"
     inkscape:cy="442.39654"
     inkscape:window-width="1920"
     inkscape:window-height="991"
     inkscape:window-x="-9"
     inkscape:window-y="-9"
     inkscape:window-maximized="1"
     inkscape:current-layer="layer1"
     showguides="false"
     units="px"
     width="700px" />
  <defs
     id="defs9" />
  <g
     inkscape:label="layer1"
     inkscape:groupmode="layer"
     id="layer1">
    <path
       style="fill:#000000;fill-opacity:1;fill-rule:nonzero;stroke:none;stroke-width:0.264583"
       id="path55"
       d="m 28.202024,21.164439 c 1.148893,0.479187 2.311091,0.927649 3.44668,1.437561 6.335884,2.844988 18.208106,8.489915 23.240497,11.114767 15.608252,8.141123 29.981792,16.448918 44.901791,25.915537 8.524868,5.408965 16.819608,11.172394 25.229408,16.758592 23.42754,17.650468 24.32457,17.466778 45.5637,36.724684 5.90055,5.35013 11.50726,11.01564 17.26089,16.52346 0,0 1.37449,-0.84805 1.37449,-0.84805 v 0 C 183.34375,123.35641 177.58376,117.79397 171.5923,112.48726 149.51463,92.932781 149.96577,94.039279 125.85248,75.858284 117.49786,70.234952 109.23358,64.475015 100.78863,58.98829 86.390119,49.633515 71.832911,40.823514 56.876169,32.4119 c -4.685604,-2.635166 -9.47216,-5.086713 -14.217224,-7.613245 -7.722984,-4.112143 -5.809858,-3.130986 -11.19813,-5.799659 0,0 -3.258791,2.165443 -3.258791,2.165443 z" />
    <path
       style="fill:#000000;fill-opacity:1;fill-rule:nonzero;stroke:none;stroke-width:0.264583"
       id="path59"
       d="m 166.16748,27.705849 c -0.46203,0.218551 -0.91357,0.460819 -1.38609,0.65565 -1.23327,0.508511 -2.48965,0.959242 -3.72877,1.453341 -9.48123,3.780665 -18.95116,7.589207 -28.15672,12.01502 -4.86045,2.336789 -9.62293,4.872122 -14.4344,7.308183 -13.35997,7.666564 -17.4545,9.619734 -30.350798,18.728258 -7.265413,5.131486 -14.556428,11.222758 -21.108374,17.276038 -5.984009,5.528569 -7.092767,6.986537 -12.177492,12.632713 -4.314899,5.454498 -2.491013,2.819298 -5.615308,7.804228 0,0 3.300532,-1.45806 3.300532,-1.45806 v 0 c 2.939076,-4.848758 1.21598,-2.27978 5.31314,-7.608458 1.628336,-1.84886 3.191904,-3.756842 4.885007,-5.546582 8.405045,-8.884779 17.730951,-16.759382 27.606355,-23.962642 3.795958,-2.768825 7.642098,-5.479548 11.630178,-7.963686 4.7762,-2.975057 9.76138,-5.600708 14.64207,-8.401063 4.74343,-2.386846 9.43582,-4.877959 14.2303,-7.160541 8.58327,-4.086373 12.92611,-5.735571 21.32046,-9.058666 2.02068,-0.799931 4.03911,-1.605981 6.07065,-2.377914 1.17895,-0.447974 2.38469,-0.823931 3.55996,-1.281475 0.4508,-0.1755 0.87603,-0.410683 1.31404,-0.616024 0,0 3.08526,-2.43832 3.08526,-2.43832 z" />
    <path
       style="fill:#000000;fill-opacity:1;fill-rule:nonzero;stroke:none;stroke-width:0.264583"
       id="path61"
       d="m 52.150438,130.03443 c -3.042288,-1.58815 -6.257901,-2.73838 -9.576834,-3.59739 -1.186392,-0.30706 -2.374816,-0.61698 -3.581964,-0.82818 -1.070411,-0.18727 -2.159656,-0.24352 -3.239484,-0.36528 -0.898993,0.11383 -1.823921,0.0988 -2.696983,0.34149 -0.706181,0.19632 -1.378487,0.53821 -1.978996,0.95847 -1.885346,1.31944 -5.070423,2.53809 -4.759195,5.37745 0.212468,1.93837 1.403742,2.77067 2.625106,4.13165 3.932047,2.59097 1.860137,1.40368 6.230429,3.53608 0,0 3.033652,-2.00041 3.033652,-2.00041 v 0 c -4.287226,-2.08807 -2.270895,-0.92045 -6.069071,-3.46795 -1.102939,-1.25212 -2.257753,-2.06897 -2.382821,-3.86018 -0.04093,-0.58622 0.864833,-1.33841 0.412816,-1.71392 -0.530889,-0.44103 -1.947289,1.04765 -2.038382,0.3635 -0.214529,-1.61123 4.815615,-0.87167 4.62793,-1.5366 1.082122,0.10171 2.174034,0.12783 3.246366,0.30514 1.200666,0.19854 2.380274,0.51202 3.557649,0.81992 3.242638,0.84802 6.390333,1.98859 9.286927,3.69251 0,0 3.302855,-2.1563 3.302855,-2.1563 z" />
    <path
       style="fill:#000000;fill-opacity:1;fill-rule:nonzero;stroke:none;stroke-width:0.264583"
       id="path63"
       d="m 62.782764,132.97614 c -0.277715,1.13541 -0.485198,2.28631 -0.657191,3.44205 -0.06543,0.43967 -0.159588,0.87729 -0.179993,1.32133 -0.05382,1.17111 0.08926,1.59482 0.297625,2.72504 0.192965,0.60697 0.527849,2.40606 1.073396,2.83835 0.756494,0.59943 1.665067,0.28584 2.428139,-0.11251 1.722893,-0.89941 3.34963,-1.9721 5.024443,-2.95815 2.135563,-1.60516 4.115974,-3.43827 5.465723,-5.76925 0.641212,-1.10735 0.712895,-1.42931 1.136634,-2.56356 0.07427,-0.3293 0.446526,-1.3415 0.03507,-1.71444 -0.912154,-0.82677 -2.628763,-0.80109 -3.667655,-0.81419 -1.896456,-0.0239 -3.299888,0.18514 -5.171305,0.38962 -3.972205,0.76109 -6.357659,2.54099 -9.803899,4.69984 0,0 3.598814,-1.43653 3.598814,-1.43653 v 0 c -0.766873,0.38505 -1.509805,0.82203 -2.300623,1.15515 -0.498838,0.21012 0.932521,-0.5529 1.421582,-0.78487 1.753632,-0.83178 2.138839,-0.84708 4.077169,-1.39601 1.996911,-0.23989 3.080445,-0.43017 5.106585,-0.42786 0.342442,2.7e-4 2.662735,0.006 3.276732,0.47376 0.333325,0.25383 -0.05785,1.36092 -0.08824,1.48961 -0.41932,1.09469 -0.486461,1.39835 -1.12748,2.46456 -1.369997,2.27872 -3.358488,4.06585 -5.498155,5.60677 0.515948,-0.26232 1.099732,-0.42062 1.547844,-0.78698 0.264972,-0.21662 -1.329603,0.99586 -2.069288,0.52348 -0.482354,-0.30804 -0.905811,-2.20904 -1.049702,-2.69462 -0.07403,-0.42113 -0.182444,-0.83765 -0.222073,-1.26339 -0.187373,-2.01307 0.395295,-4.13596 0.942962,-6.05437 0,0 -3.597114,1.64717 -3.597114,1.64717 z" />
    <path
       style="fill:#000000;fill-opacity:1;fill-rule:nonzero;stroke:none;stroke-width:0.264583"
       id="path65"
       d="m 85.922047,130.90523 c -0.276455,2.14943 -0.474403,4.31341 -0.604028,6.477 -0.03187,0.53198 -0.105719,1.06575 -0.06803,1.59735 0.02405,0.33932 0.167606,0.65938 0.251408,0.98907 0.191071,0.14706 0.33701,0.39278 0.573217,0.44119 0.300529,0.0616 0.63769,0.004 0.910045,-0.13722 3.610186,-1.8716 5.111911,-2.99228 7.649712,-5.69414 0.297987,-0.32207 0.592233,-0.64764 0.893961,-0.96621 0.253603,-0.26775 1.101569,-0.95792 0.771901,-0.79262 -0.945015,0.47388 -1.905262,0.99001 -2.653964,1.73637 -0.152035,0.15157 0.345816,0.26895 0.460036,0.45072 0.114946,0.18292 0.777195,1.79873 0.852744,1.98034 0.2203,0.20516 0.38276,0.50032 0.660903,0.61547 1.575652,0.6523 5.492108,-2.25201 6.565808,-2.89419 0.34743,-0.2078 1.32663,-0.92817 1.00196,-0.68634 -0.80496,0.59957 -1.62887,1.17327 -2.44331,1.75991 0.22972,0.20298 0.50744,0.36207 0.68916,0.60895 0.75176,1.02132 1.02791,2.38426 1.34637,3.58122 0,0 3.40762,-1.85358 3.40762,-1.85358 v 0 c -0.48615,-1.69837 -0.9014,-3.48108 -2.31114,-4.67186 -1.4336,0.66362 -2.88832,1.28341 -4.30082,1.99085 -0.358884,0.17974 -1.367052,0.83557 -1.003385,0.66571 0.774311,-0.36167 1.513285,-0.79723 2.241745,-1.24412 0.56429,-0.34618 -1.220683,0.79574 -1.870302,0.66818 -0.241366,-0.0474 -0.393813,-0.29482 -0.590722,-0.44224 -0.147645,-0.35187 -1.154207,-3.05628 -1.599064,-2.93078 -2.824502,0.79684 -4.000138,2.03317 -5.675874,3.9072 -0.986136,1.0182 -1.057349,1.13891 -2.147435,2.07075 -0.382505,0.32698 -1.664242,1.06148 -1.173639,0.94953 0.850564,-0.1941 1.540349,-0.82004 2.32019,-1.21116 0.23845,-0.1196 -0.433927,0.34296 -0.695322,0.39621 -0.156232,0.0318 -0.299797,-0.10865 -0.449694,-0.16298 -0.08409,-0.28512 -0.227968,-0.5591 -0.252262,-0.85537 -0.04291,-0.52324 0.02381,-1.04991 0.05305,-1.57409 0.120886,-2.16686 0.322297,-4.34402 0.747123,-6.47353 0,0 -3.557964,1.70441 -3.557964,1.70441 z" />
    <path
       style="fill:#000000;fill-opacity:1;fill-rule:nonzero;stroke:none;stroke-width:0.264583"
       id="path67"
       d="m 113.61566,134.9994 c 0.23889,5.67947 0.45298,11.35597 0.1386,17.03594 -0.0689,0.32242 -0.49163,1.13311 -0.20669,0.96725 1.21846,-0.70924 2.52565,-1.50809 3.232,-2.72823 0.3686,-0.63672 -0.28401,-1.4442 -0.39555,-2.17141 -0.50082,-3.26506 -0.6987,-6.54477 -0.8945,-9.83854 -0.12253,-2.44321 -0.0241,-4.88659 0.37286,-7.30053 0.14841,-0.90248 0.26141,-1.65815 0.69529,-2.46162 0.13528,-0.25052 0.34135,-0.45577 0.51203,-0.68365 1.88104,-1.38882 -1.5294,0.7663 -2.20829,1.2788 -0.1563,0.11799 0.38744,-0.0834 0.583,-0.0728 0.67584,0.0367 1.25117,0.43912 1.79819,0.78737 1.2165,1.04445 2.17687,2.34736 2.83221,3.8056 0.46588,1.31949 0.73259,2.70603 0.20958,4.05636 -0.14456,0.37322 -0.35581,0.71705 -0.53371,1.07558 -0.78839,1.31239 -1.62229,2.68478 -2.86168,3.62837 -0.22576,0.17188 -0.47926,0.30389 -0.71889,0.45583 0,0 3.64419,-1.43117 3.64419,-1.43117 v 0 c 1.52742,-1.12791 2.57675,-2.58627 3.46527,-4.25959 0.17187,-0.38405 0.38015,-0.75379 0.51561,-1.15214 0.49085,-1.44335 0.20631,-2.91243 -0.30483,-4.30081 -0.69527,-1.52158 -1.70497,-2.86798 -2.93952,-3.99986 -0.59179,-0.3987 -1.21113,-0.84131 -1.92734,-0.98879 -1.97566,-0.40681 -3.83571,1.29254 -5.13934,2.68572 -0.15044,0.25303 -0.33306,0.48953 -0.45133,0.75911 -0.36263,0.82658 -0.46844,1.61011 -0.58665,2.50617 -0.31907,2.4187 -0.34921,4.8584 -0.20631,7.29264 0.20445,3.31712 0.41159,6.62346 0.80632,9.9246 0.0903,0.7553 -0.41756,2.00968 0.29997,2.26225 3.85923,1.35843 3.65801,-0.15479 3.76699,-1.7942 0.0538,-5.71103 -0.0666,-11.42175 0.0231,-17.13208 0,0 -3.52056,1.79381 -3.52056,1.79381 z" />
    <path
       style="fill:#000000;fill-opacity:1;fill-rule:nonzero;stroke:none;stroke-width:0.264583"
       id="path69"
       d="m 138.10061,130.12837 c -1.35546,-0.22996 -2.69568,-1.32278 -4.09274,-1.27237 -0.19646,0.007 -0.38448,0.0822 -0.57672,0.12332 -1.2944,0.78767 -2.62642,1.51662 -3.88319,2.36303 -0.2143,0.14433 -0.3379,0.39102 -0.50218,0.59043 -0.65063,0.78977 -1.17949,1.56485 -1.55389,2.51774 -0.49774,1.69921 -0.4459,3.12663 0.2019,4.76875 0.68085,1.21918 1.86755,1.76589 3.16744,2.07952 0.66489,-0.0756 0.74141,-0.0178 1.36114,-0.39144 3.19497,-1.92635 4.03902,-2.0027 5.49783,-4.67946 0.93275,-1.49601 1.32861,-3.19987 1.6024,-4.91869 0.20138,-2.05195 0.78287,-1.99657 -3.04802,0.93379 -0.0805,0.0616 0.14267,0.14558 0.1991,0.22975 0.50681,0.75591 0.61038,1.04983 1.04774,1.9303 0.99551,2.15599 1.90644,4.35547 3.08864,6.41811 0,0 3.38697,-1.95677 3.38697,-1.95677 v 0 c -1.20137,-2.03798 -2.14854,-4.21194 -3.10992,-6.37031 -0.0526,-0.11372 -1.29742,-2.7824 -1.48175,-2.713 -3.67264,1.38263 -3.36614,1.15077 -3.61083,3.25526 -0.27552,1.68627 -0.71697,3.32715 -1.64702,4.78422 -0.40542,0.67705 -0.46756,0.84778 -0.98874,1.44836 -0.18392,0.21195 -0.8506,0.70261 -0.58869,0.60182 0.95253,-0.36656 1.80008,-0.96307 2.71305,-1.41935 0.22234,-0.11111 -0.41787,0.27104 -0.6397,0.38316 -0.17422,0.0881 -0.36303,0.14363 -0.54455,0.21545 -1.19634,-0.22601 -2.32613,-0.6394 -2.97588,-1.74389 -0.60143,-1.51739 -0.60387,-2.95355 -0.0591,-4.49754 0.30228,-0.651 0.63984,-1.21707 1.08637,-1.7829 0.99515,-1.26099 3.17895,-2.6798 -1.82862,0.37941 0.16249,-0.0851 0.30869,-0.21434 0.48749,-0.2553 1.18143,-0.27061 2.88659,0.94803 4.03561,1.21414 0,0 3.25583,-2.23554 3.25583,-2.23554 z" />
    <path
       style="fill:#000000;fill-opacity:1;fill-rule:nonzero;stroke:none;stroke-width:0.264583"
       id="path71"
       d="m 148.54784,129.83739 c 1.65186,2.97895 2.45985,6.31039 3.80118,9.42436 0.18436,0.15154 0.32838,0.37425 0.55308,0.45463 0.20618,0.0738 0.46322,0.0809 0.65655,-0.0219 1.38885,-0.73858 2.73741,-1.56033 4.02307,-2.46668 0.36744,-0.25903 1.56535,-2.13554 1.87756,-2.58039 0.60207,-0.81775 1.18811,-1.65153 1.84031,-2.43111 0.15915,-0.19025 0.71791,-0.66645 0.49688,-0.55391 -3.34875,1.70513 -4.02923,1.37048 -2.82466,1.87846 0.37833,1.15932 0.3722,2.3989 0.54561,3.59514 0.13426,0.92614 0.33528,1.72268 0.543,2.63535 0.33801,1.11257 0.47567,2.36878 1.24421,3.30179 0.17856,0.21677 0.43016,0.36116 0.64524,0.54174 0,0 3.31765,-2.09246 3.31765,-2.09246 v 0 c -0.19639,-0.13631 -0.42893,-0.23154 -0.58917,-0.40894 -0.77779,-0.86106 -0.8782,-2.12113 -1.21451,-3.17162 -0.233,-1.0617 -0.36061,-1.53393 -0.50276,-2.60348 -0.17263,-1.29886 -0.1476,-2.64957 -0.62413,-3.88914 -0.13986,-0.14606 -0.23308,-0.51632 -0.41959,-0.43817 -3.7011,1.55066 -4.05028,2.45507 -6.02763,5.1869 -0.27336,0.38532 -0.95997,1.36732 -1.26259,1.73806 -0.21403,0.2622 -1.00108,0.85747 -0.67829,0.75562 0.97635,-0.30807 1.81058,-0.95718 2.73192,-1.40362 0.16621,-0.0805 -0.27883,0.2912 -0.46306,0.30424 -0.18091,0.0128 -0.32656,-0.15786 -0.48985,-0.23679 -1.46127,-3.08521 -2.28051,-6.41962 -3.76403,-9.49794 0,0 -3.41599,1.97989 -3.41599,1.97989 z" />
    <path
       style="fill:#000000;fill-opacity:1;fill-rule:nonzero;stroke:none;stroke-width:0.264583"
       id="path73"
       d="m 169.33952,131.27741 c 1.03075,1.59118 2.00438,3.21492 3.0418,4.80302 0.61077,0.88941 1.23968,1.76852 2.021,2.51861 0.20737,0.19907 0.4031,0.42106 0.65272,0.56361 0.67763,0.38699 1.10997,0.34864 1.85612,0.41942 0.31379,-0.0267 0.63013,-0.0322 0.94139,-0.0802 0.4306,-0.0663 6.40839,-1.76994 2.77394,-1.9479 -1.1618,-0.0569 -2.06575,1.06993 -3.10043,1.60139 -1.18151,0.60689 -2.36542,1.2091 -3.54813,1.81364 0,0 -2.81417,2.25455 -2.81417,2.25455 v 0 c 1.16827,-0.5931 2.3349,-1.18943 3.5048,-1.77929 0.98676,-0.49753 2.02901,-0.89564 2.96518,-1.48286 1.54848,-0.9713 2.99215,-2.10083 4.46782,-3.17954 0.0932,-0.0681 -0.20589,0.10594 -0.31491,0.14377 -0.85357,0.29626 -0.7818,0.2404 -1.70066,0.37669 -0.56733,-0.008 -1.17534,0.0499 -1.71021,-0.21487 -0.24736,-0.12246 -0.43879,-0.33612 -0.64244,-0.52243 -0.78214,-0.7155 -1.40364,-1.57213 -1.99031,-2.44935 -1.02568,-1.58391 -2.00857,-3.19061 -2.9757,-4.8098 0,0 -3.42781,1.97152 -3.42781,1.97152 z" />
    <path
       style="fill:#000000;fill-opacity:1;fill-rule:nonzero;stroke:none;stroke-width:0.264583"
       id="path75"
       d="m 178.36125,140.20608 c -2.77211,1.96798 -5.48942,4.01272 -8.24261,6.00716 -1.15889,0.9176 -2.47756,1.65125 -3.54052,2.69078 -0.62701,0.61318 -0.83993,0.98675 -1.32465,1.68671 0,0 3.57984,-1.55214 3.57984,-1.55214 v 0 c 0.53427,-0.72149 0.65591,-0.9504 1.33979,-1.58633 1.07036,-0.99532 2.34449,-1.74282 3.48954,-2.64218 2.78834,-2.03163 5.56205,-4.08325 8.36787,-6.09096 0,0 -3.66926,1.48696 -3.66926,1.48696 z" />
    <path
       style="fill:#000000;fill-opacity:1;fill-rule:nonzero;stroke:none;stroke-width:0.264583"
       id="path77"
       d="m 36.016834,139.61496 c 1.487411,0.20597 2.966622,0.44773 4.464146,0.58362 1.099026,0.15242 2.1855,0.0267 3.262058,-0.19833 0,0 3.1427,-2.39765 3.1427,-2.39765 v 0 c -1.051277,0.28169 -2.123877,0.46165 -3.214955,0.31999 -1.495819,-0.12138 -2.984219,-0.30553 -4.45018,-0.6353 0,0 -3.203769,2.32767 -3.203769,2.32767 z" />
    <path
       style="fill:#000000;fill-opacity:1;fill-rule:nonzero;stroke:none;stroke-width:0.264583"
       id="path79"
       d="m 33.759087,138.55188 c 1.213942,0.34333 2.438831,0.64112 3.594076,1.15521 0,0 3.283373,-2.17625 3.283373,-2.17625 v 0 c -1.165111,-0.54936 -2.403914,-0.83725 -3.624352,-1.23547 0,0 -3.253097,2.25651 -3.253097,2.25651 z" />
    <path
       style="fill:#000000;fill-opacity:1;fill-rule:nonzero;stroke:none;stroke-width:0.264583"
       id="path91"
       d="m 173.94591,141.19956 c -1.29975,0.68656 -0.73524,0.38623 -3.63857,2.10666 -0.1397,0.0828 -0.26391,0.18945 -0.3998,0.27833 -0.20547,0.13438 -0.41537,0.26187 -0.62401,0.39128 -0.4641,0.28787 -0.9301,0.57266 -1.39422,0.86048 -0.71875,0.45068 -1.39056,0.97713 -1.94824,1.61923 -0.23856,0.27466 -0.35016,0.4421 -0.55928,0.7318 -0.0689,0.10499 -0.13786,0.20997 -0.20679,0.31496 0,0 3.406,-1.49891 3.406,-1.49891 v 0 c 0.0563,-0.0918 0.11261,-0.18366 0.16891,-0.2755 0.19668,-0.2746 0.27454,-0.39784 0.50456,-0.65581 0.51233,-0.57459 1.13234,-1.0389 1.77694,-1.45421 0.67851,-0.42577 0.67293,-0.42734 1.38576,-0.85264 0.24963,-0.14894 0.49971,-0.29717 0.75139,-0.44262 0.22448,-0.12973 0.90126,-0.51308 0.67704,-0.38289 -1.0216,0.59315 -2.04682,1.18006 -3.06922,1.77183 -0.0276,0.016 0.0564,-0.0296 0.0846,-0.0444 0,0 3.08489,-2.46762 3.08489,-2.46762 z" />
    <path
       style="fill:#000000;fill-opacity:1;fill-rule:nonzero;stroke:none;stroke-width:0.264583"
       id="path95"
       d="m 102.46967,139.11416 c 0.11781,0.43176 0.24178,0.87172 0.45686,1.26764 0.16064,0.29568 0.28989,0.43836 0.49476,0.69902 0.0917,0.0905 0.17415,0.19147 0.27508,0.27156 0.40669,0.32269 0.9406,0.47326 1.45535,0.39541 0.10106,-0.0153 0.19785,-0.0514 0.29677,-0.0771 2.5211,-1.49411 3.18157,-1.12992 4.00504,-2.88878 0,0 -3.54747,1.59715 -3.54747,1.59715 v 0 c -0.11519,0.19591 -0.14759,0.27475 -0.30737,0.44511 -0.74582,0.79519 -4.626,2.67826 2.8965,-1.55855 -0.0836,0.0513 -0.1612,0.11417 -0.2509,0.15396 -0.41094,0.18233 -0.89358,0.15489 -1.26854,-0.0954 -0.0935,-0.0624 -0.17136,-0.14558 -0.25704,-0.21838 -0.0798,-0.0939 -0.16719,-0.18176 -0.23943,-0.28155 -0.32215,-0.44496 -0.48773,-0.99017 -0.50564,-1.53559 0,0 -3.50397,1.82557 -3.50397,1.82557 z" />
    <path
       style="fill:#000000;fill-opacity:1;fill-rule:nonzero;stroke:none;stroke-width:0.264583"
       id="path97"
       d="m 33.423539,126.07046 c -0.07268,0.0221 -0.136924,0.0633 -0.207875,0.0896 -0.02148,0.008 -0.04414,0.0126 -0.06574,0.0203 -1.262764,0.44926 -2.320529,1.34195 -3.477967,2.01778 -0.07327,0.12723 -0.0084,0.0234 -0.08964,0.1322 -0.01556,0.0208 -0.02785,0.0441 -0.0444,0.0641 -0.04657,0.0565 -0.112369,0.11444 -0.164068,0.16712 -0.05098,0.0315 -0.10925,0.0688 -0.162648,0.0958 -0.02877,0.0145 -0.06005,0.0238 -0.08825,0.0394 -0.02805,0.0155 -0.05239,0.0371 -0.0799,0.0535 -0.180474,0.1079 0.01431,-0.0242 -0.153863,0.0938 8.693235,-5.03669 -0.09314,0.0495 -0.138726,0.076 -0.0335,0.0194 -0.128897,0.0912 -0.153196,0.10867 -0.161743,0.1165 -0.122968,0.0882 -0.301311,0.20822 -1.097925,0.72687 -2.6453,1.55762 2.793252,-1.6027 0,0 -2.977872,2.39029 -2.977872,2.39029 v 0 c 1.294561,-0.74578 2.512888,-1.34525 3.692146,-2.15648 0.173479,-0.11056 0.348803,-0.21634 0.526508,-0.31992 0.02262,-0.0132 0.09034,-0.0529 0.06767,-0.0399 -3.85713,2.22543 -4.953495,2.86209 0.132281,-0.0822 0.168524,-0.098 0.320148,-0.20864 0.444018,-0.36155 0.03322,-0.0344 0.09401,-0.0969 0.126458,-0.13277 0.04639,-0.0513 0.09663,-0.11131 0.15798,-0.14641 0.01836,-0.0105 0.03994,-0.014 0.05991,-0.0209 -1.09588,0.63561 -2.190229,1.27386 -3.287636,1.90683 -0.01995,0.0115 0.03623,-0.0285 0.05478,-0.0422 0.01884,-0.0139 0.0369,-0.0291 0.05736,-0.0405 0.05557,-0.0309 0.120753,-0.0395 0.174003,-0.0751 0,0 3.106732,-2.44302 3.106732,-2.44302 z" />
    <path
       style="fill:#000000;fill-opacity:1;fill-rule:nonzero;stroke:none;stroke-width:0.264583"
       id="path99"
       d="m 29.487831,128.24533 c -0.0663,0.23278 -0.225126,0.4204 -0.372436,0.60644 0,0 3.466775,-1.48568 3.466775,-1.48568 v 0 c 0.06196,-0.0802 0.192571,-0.25088 0.257344,-0.32793 0.05708,-0.0679 0.152972,-0.18068 0.231124,-0.23857 0.02408,-0.0178 0.05276,-0.0284 0.07914,-0.0426 0,0 -3.661944,1.48835 -3.661944,1.48835 z" />
    <path
       style="fill:#000000;fill-opacity:1;fill-rule:nonzero;stroke:none;stroke-width:0.264583"
       id="path101"
       d="m 29.217768,128.70471 c -0.224187,0.2046 -0.448228,0.4096 -0.683337,0.60166 0,0 3.550391,-1.44274 3.550391,-1.44274 v 0 c 0.244115,-0.23118 0.510154,-0.43596 0.785066,-0.6292 0,0 -3.65212,1.47028 -3.65212,1.47028 z" />
    <path
       style="fill:#000000;fill-opacity:1;fill-rule:nonzero;stroke:none;stroke-width:0.264583"
       id="path103"
       d="m 28.14651,128.58708 c -0.138031,0.11573 -0.257334,0.24988 -0.369478,0.39028 -0.02553,0.0328 -0.04971,0.0667 -0.07656,0.0984 -0.02569,0.0304 -0.05543,0.0572 -0.08092,0.0877 -0.09192,0.1102 -0.173834,0.22933 -0.261345,0.34304 -0.02604,0.0441 -0.06908,0.0743 -0.09877,0.11527 -0.02924,0.0404 -0.05616,0.10208 -0.07717,0.14578 0,0 3.574076,-1.56865 3.574076,-1.56865 v 0 c 0.06606,-0.0766 0.13444,-0.15012 0.184769,-0.23866 0.119862,-0.16865 0.256799,-0.32453 0.399325,-0.47423 0.151048,-0.14065 0.31142,-0.27081 0.461018,-0.41295 0,0 -3.654951,1.51393 -3.654951,1.51393 z" />
    <path
       style="fill:#000000;fill-opacity:1;fill-rule:nonzero;stroke:none;stroke-width:0.264583"
       id="path105"
       d="m 27.671675,128.82023 c -0.138398,0.0501 0.06151,-0.0254 -0.08228,0.0399 -0.01117,0.005 -0.0461,0.0158 -0.03544,0.01 1.136539,-0.64333 2.276525,-1.28054 3.414024,-1.92217 0.0019,-10e-4 -0.0046,0.001 -0.0066,1.6e-4 -0.01693,-0.007 -0.0332,-0.0151 -0.04979,-0.0227 -0.0058,0.0399 -0.0084,0.053 -0.03826,0.0806 0,0 -3.175678,2.36948 -3.175678,2.36948 v 0 c 0.03983,0.0136 0.07583,0.0335 0.116198,0.0452 -0.0204,-0.0562 -0.02758,-0.0328 -0.0029,-0.0466 1.148725,-0.64316 2.296948,-1.28722 3.44542,-1.93083 0.0046,-0.006 0.0079,-0.0141 0.01365,-0.0195 0.02466,-0.0229 0.06037,-0.0328 0.07737,-0.0651 0,0 -3.67565,1.46176 -3.67565,1.46176 z" />
    <circle
       id="path107"
       style="fill:#000000;stroke:#000000;stroke-width:0.264583"
       cx="29.90284"
       cy="127.93416"
       r="0.0043817703" />
    <circle
       id="path109"
       style="fill:#000000;stroke:#000000;stroke-width:0.264583"
       cx="29.90284"
       cy="127.93416"
       r="0.0043817703" />
    <path
       style="fill:#000000;fill-opacity:1;fill-rule:nonzero;stroke:none;stroke-width:0.264583"
       id="path111"
       d="m 27.383811,129.72669 c 0.05252,-0.018 0.02434,-0.0122 0.08493,-0.0154 0,0 3.076199,-2.36254 3.076199,-2.36254 v 0 c -0.0053,0.0135 -0.0026,0.0153 -0.0075,0.006 0,0 -3.153677,2.37183 -3.153677,2.37183 z" />
    <circle
       id="path113"
       style="fill:#000000;stroke:#000000;stroke-width:0.264583"
       cx="28.792587"
       cy="128.11508"
       r="0.0010954426" />
    <circle
       id="path115"
       style="fill:#000000;stroke:#000000;stroke-width:0.264583"
       cx="28.792587"
       cy="128.11508"
       r="0.0010954426" />
    <path
       style="fill:none;stroke:#000000;stroke-width:0.264583px;stroke-linecap:butt;stroke-linejoin:miter;stroke-opacity:1"
       d="m 30.026202,127.78612 c -0.03619,0.0773 -0.08814,0.0764 -0.164481,0.10692 -0.111209,0.0445 -0.212346,0.10019 -0.328964,0.13158 -0.0085,0.002 -0.133562,0.0142 -0.148034,0.0576 -0.0011,0.003 -0.01693,0.0905 -0.0082,0.0905 0.115046,0 0.197567,-0.0633 0.296066,-0.11514 0.114835,-0.0604 -0.0026,0.009 0.222052,-0.0905 0.161504,-0.0718 0.06976,-0.0545 0.18093,-0.0822 0.01683,-0.004 0.06161,-0.004 0.04934,-0.0165 -0.0039,-0.004 -0.01106,-0.001 -0.01646,0 -0.02487,0.005 -0.04913,0.0121 -0.07402,0.0165 -0.0943,0.0166 -0.18374,0.0247 -0.279617,0.0247 -0.0329,0 -0.06579,0 -0.09869,0 -0.0028,0 -0.01095,0 -0.0082,0 0.02122,0 0.213828,-0.12023 0.213828,-0.12336 0,-0.005 -0.01098,0 -0.01646,0"
       id="path154" />
    <path
       style="fill:none;stroke:#000000;stroke-width:0.264583px;stroke-linecap:butt;stroke-linejoin:miter;stroke-opacity:1"
       d="m 28.934121,128.1522 c -0.03913,-0.001 -0.07711,0.001 -0.116305,0.006 -0.01286,0.002 -0.02704,0.002 -0.0378,0.009 -7.94e-4,5.3e-4 5.29e-4,0.002 0,0.003 -0.0092,0.0101 -0.01897,0.0198 -0.02908,0.0291 -0.0032,0.003 -0.0086,0.003 -0.01164,0.006 -0.0016,0.002 -0.0013,0.004 -0.0029,0.006 -0.0013,0.001 -0.0044,-0.001 -0.0058,0 -0.0024,0.002 -0.003,0.007 -0.0058,0.009 -0.02469,0.0176 -0.05727,0.0298 -0.08141,0.0465 -0.01482,0.0103 -0.03087,0.0192 -0.04361,0.032 -7.94e-4,7.9e-4 7.94e-4,0.002 0,0.003 -0.0031,0.003 -0.0083,0.003 -0.01164,0.006 -0.01437,0.0115 -0.03105,0.0217 -0.04652,0.032 -0.0063,0.004 -0.02011,0.0172 -0.02617,0.0233 -0.0034,0.003 -0.0044,0.009 -0.0087,0.0116 -0.0026,0.001 -0.006,-10e-4 -0.0087,0 -0.0026,0.001 -0.0035,0.004 -0.0058,0.006 -0.0071,0.005 -0.01842,0.0123 -0.02617,0.0174 -0.0055,0.004 -0.0072,0.0137 -0.01455,0.0174 -7.94e-4,5.3e-4 -0.0019,0 -0.0029,0 -0.0087,0.008 -0.01683,0.0163 -0.02617,0.0233 -0.0024,0.002 -0.0063,0.001 -0.0087,0.003 -0.0019,0.001 -0.0019,0.004 -0.0029,0.006 -0.0058,0.004 -0.01151,0.008 -0.01744,0.0116 -0.0044,0.003 -0.01019,0.003 -0.01452,0.006 -7.94e-4,5.3e-4 7.94e-4,0.002 0,0.003 -0.0063,0.006 -0.01302,0.0124 -0.02035,0.0174 -0.0053,0.004 -0.01193,0.005 -0.01744,0.009 -0.0077,0.005 -0.0051,0.008 -0.01164,0.0146 -0.0024,0.002 -0.0066,0.003 -0.0087,0.006 -0.0039,0.005 -0.0053,0.0119 -0.0087,0.0174 -0.0053,0.009 -0.01378,0.0183 -0.02035,0.0262 -0.0029,0.003 -0.0058,0.006 -0.0087,0.009 0,0.004 0.0021,0.008 0,0.0116 -0.009,0.0139 -0.02175,0.0248 -0.03199,0.0378 -0.02458,0.0311 -0.02326,0.0436 -0.02326,0.0814 0,0.007 -0.0019,0.0186 0.0058,0.0233 0.02029,0.0127 0.08589,-0.002 0.09886,-0.006 0.02577,-0.007 0.05021,-0.018 0.0756,-0.0262 0.02598,-0.008 0.05243,-0.0152 0.07851,-0.0233 0.03983,-0.0123 0.0787,-0.028 0.119213,-0.0378 0.07952,-0.0193 0.09166,-0.003 0.171551,-0.0262 0.03598,-0.0104 0.0706,-0.0252 0.104677,-0.0407 0.103119,-0.0469 0.140623,-0.0912 0.215167,-0.16574 0.02664,-0.0266 0.05485,-0.0519 0.08141,-0.0785 0.0085,-0.008 0.01476,-0.0206 0.02326,-0.0291 0.0034,-0.003 0.0087,-0.005 0.01164,-0.009 0.004,-0.005 0.005,-0.0121 0.0087,-0.0174 0.007,-0.0102 0.01471,-0.0201 0.02326,-0.0291 0.0118,-0.0124 0.03013,-0.0196 0.0378,-0.0349 0.004,-0.008 0.0028,-0.0178 0.0058,-0.0262 0.01135,-0.0317 0.02854,-0.0658 0.0087,-0.0989 -0.0021,-0.003 -0.0079,0.001 -0.01164,0 -0.03062,-0.008 -0.004,-0.006 -0.03489,-0.006 -0.03489,0 -0.06978,0 -0.104677,0 -0.01551,0 -0.03113,-0.002 -0.04652,0 -0.0168,0.002 -0.03306,0.007 -0.04943,0.0116 -0.0092,0.002 -0.01196,0.011 -0.01744,0.0174 -0.01114,0.013 -0.0426,0.0562 -0.05815,0.064 -0.01008,0.005 -0.03271,-5.3e-4 -0.04071,-0.006 z"
       id="path156" />
    <path
       style="fill:#000000;fill-opacity:1;fill-rule:nonzero;stroke:none;stroke-width:0.264583"
       id="path271"
       d="m 162.57507,29.932055 c -2.89964,3.198345 -5.94163,6.262074 -8.96882,9.338466 -4.00055,3.752924 -7.02251,8.355979 -10.43405,12.612817 1.01702,-0.457358 -3.02267,2.475678 -2.38261,1.731286 0.4816,-0.5601 1.67947,-0.585669 1.78209,-1.317184 0.0778,-0.554561 -1.09191,0.253498 -1.64509,0.340593 -1.38458,0.217991 -4.45612,0.531606 -5.761,0.672923 -4.89479,0.6193 -9.68714,1.937163 -14.25465,3.79648 -2.66343,1.084212 -3.92208,1.781222 -6.44581,3.056588 -3.53221,1.888003 -6.96783,3.932886 -10.16573,6.344322 -2.10691,1.588757 -4.12406,3.289774 -6.127592,5.005009 -3.709508,3.30118 -7.353326,6.674588 -11.070185,9.967653 -4.800827,3.921808 -9.823447,7.562054 -14.802749,11.251835 -1.309238,0.99859 -2.543257,2.090843 -3.657047,3.304262 -0.808159,0.880451 -1.537465,1.828062 -2.268149,2.77219 -0.251952,0.315484 -0.50606,0.629262 -0.755859,0.946455 -0.93786,1.1909 -1.859139,2.39145 -2.837883,3.54979 -1.021221,1.20862 -1.380861,1.59009 -2.452381,2.7827 -0.495345,0.52472 -2.037942,2.16438 -2.56413,2.70036 -0.36754,0.37437 -0.718275,0.76836 -1.119981,1.10582 -0.316442,0.26583 -1.374825,0.91769 -1.025634,0.69663 2.681259,-1.6974 3.328705,-1.66047 1.740091,-1.50027 -0.442238,-0.0747 -0.643012,-0.0647 -1.035881,-0.30789 -0.993788,-0.61518 -1.746139,-1.7608 -2.426869,-2.68377 -0.754862,-1.12037 -0.399188,-0.55999 -1.070105,-1.67918 0,0 -3.292478,1.9113 -3.292478,1.9113 v 0 c 0.698072,1.12758 0.335826,0.55777 1.088261,1.70846 0.503174,0.67593 0.675648,0.92572 1.217538,1.5794 0.326655,0.39405 0.80958,0.98499 1.24214,1.30216 0.424987,0.31162 0.669366,0.32394 1.16664,0.45253 2.248622,-0.005 0.882118,0.11542 4.865259,-2.16567 0.726374,-0.41598 1.460508,-1.247 2.012254,-1.822 0.508918,-0.53038 2.060459,-2.19035 2.537613,-2.6998 2.147742,-2.3834 4.212053,-4.834691 6.183104,-7.366827 1.691751,-2.184718 3.514598,-4.259837 5.759913,-5.901836 4.911651,-3.741734 9.90678,-7.37672 14.717961,-11.247823 3.726399,-3.282794 7.363843,-6.663135 11.074809,-9.963039 2.00259,-1.702517 4.01254,-3.396215 6.11882,-4.97105 2.45426,-1.835028 1.95913,-1.388753 4.56894,-3.102186 0.0652,-0.04277 -0.13942,0.0697 -0.20913,0.104547 2.52558,-1.302406 3.82736,-2.037247 6.49096,-3.140453 4.50275,-1.864945 9.2386,-3.17463 14.07834,-3.768969 1.00944,-0.09289 2.01839,-0.191172 3.02831,-0.278669 0.31103,-0.02695 3.52168,-0.208886 4.17619,-0.477748 1.58655,-0.651732 3.08854,-1.494406 4.60572,-2.294453 0.42088,-0.221943 0.83292,-0.469347 1.20287,-0.768565 0.38851,-0.314227 0.70605,-0.70726 1.05907,-1.060889 1.35311,-1.796211 2.63012,-3.649945 4.00044,-5.432975 1.9178,-2.49541 3.96245,-4.896615 6.25463,-7.059147 3.14009,-3.173574 6.27346,-6.353675 9.40814,-9.532538 0,0 -3.60629,1.508355 -3.60629,1.508355 z" />
    <path
       style="fill:#000000;fill-opacity:1;fill-rule:nonzero;stroke:none;stroke-width:0.264583"
       id="path275"
       d="m 28.077882,21.691402 c 0.849371,0.968542 1.53167,2.103099 1.95603,3.322484 0.144053,0.413926 0.245608,0.84144 0.368411,1.26216 0.10989,0.626197 0.253246,1.247436 0.329671,1.878594 0.213185,1.760538 0.216387,3.142443 0.171379,4.927836 -0.02913,1.155554 -0.173247,3.557857 -0.291434,4.758716 -0.06233,0.633315 -0.158022,1.262901 -0.237032,1.894351 -0.186423,1.302377 -0.492128,2.578494 -0.84192,3.844451 0,0 3.426188,-1.642216 3.426188,-1.642216 v 0 c 0.275769,-1.260623 0.515096,-2.528006 0.660487,-3.811648 0.0573,-0.626634 0.128468,-1.252154 0.171889,-1.879899 0.0604,-0.873189 0.188367,-3.966189 0.209799,-4.738399 0.06507,-2.344465 0.08085,-4.695582 -0.320022,-7.016373 -0.116943,-0.439642 -0.212346,-0.885586 -0.350827,-1.318927 -0.407918,-1.276481 -1.086125,-2.448139 -1.875538,-3.523412 0,0 -3.377081,2.042282 -3.377081,2.042282 z" />
    <path
       style="fill:#000000;fill-opacity:1;fill-rule:nonzero;stroke:none;stroke-width:0.264583"
       id="path277"
       d="m 188.85112,127.96744 c -1.53163,-0.12256 -3.03246,-0.43971 -4.51483,-0.83253 -2.64255,-0.77792 -5.19096,-1.84799 -7.72925,-2.91025 -1.59605,-0.70564 -3.25707,-1.34332 -4.97604,-1.68361 -0.90272,-0.1787 -1.29356,-0.16735 -2.22075,-0.21987 -1.49346,7.9e-4 -0.75634,-0.0118 -2.21139,0.0362 0,0 -3.05334,2.2371 -3.05334,2.2371 v 0 c 1.45225,-0.0684 0.71857,-0.0443 2.2011,-0.071 0.78114,0.0346 1.40963,0.0381 2.18075,0.16533 1.7363,0.2865 3.41119,0.90054 5.02712,1.57605 1.55181,0.63164 3.10085,1.26924 4.64475,1.92004 0.66116,0.2787 1.47137,0.64539 2.16892,0.87668 0.27173,0.0901 0.55137,0.15431 0.82706,0.23146 1.46084,0.4001 2.93727,0.76719 4.44376,0.9437 0,0 3.21214,-2.26931 3.21214,-2.26931 z" />
    <path
       style="fill:#000000;fill-opacity:1;fill-rule:nonzero;stroke:none;stroke-width:0.264583"
       id="path287"
       d="m 33.658548,40.298941 c -6.221902,3.52965 -1.376551,0.816912 0.121637,0.06497 1.011766,-0.499266 2.058262,-0.946761 3.140141,-1.272812 0.291152,-0.08774 0.581964,-0.182597 0.881557,-0.234686 0.620167,-0.107828 1.248375,-0.162777 1.872562,-0.244168 3.184509,-0.184518 6.405578,-0.0536 9.55508,0.475798 1.953535,0.328369 2.428867,0.509973 4.322871,1.030303 1.922547,0.627274 3.87331,1.269087 5.59816,2.351048 0.598146,0.375203 0.821709,0.582673 1.344811,1.011213 0.910609,0.677747 1.398492,1.707211 2.122892,2.546755 0.823953,0.808482 1.724655,1.537634 2.636661,2.244178 1.164026,0.868187 2.416161,1.605544 3.701163,2.277805 1.900179,1.043824 3.932457,1.813772 5.947206,2.602159 1.285518,0.429464 2.542892,0.942464 3.826775,1.376108 1.277329,0.431433 2.569911,0.812687 3.845441,1.251575 2.194584,0.793504 4.347159,1.692283 6.45151,2.699734 2.064242,0.998852 4.038565,2.170332 5.940134,3.449262 1.515805,1.024509 2.889329,2.22985 4.27179,3.421766 0.897551,0.776245 1.802771,1.563896 2.827071,2.171113 0.55255,0.327556 1.12266,0.624567 1.68138,0.941485 1.14025,0.675516 2.292,1.343729 3.35331,2.141564 0.55808,0.419531 1.13656,0.924496 1.66749,1.375061 1.54119,1.345168 2.98819,2.791446 4.45531,4.215526 1.52567,1.470309 2.91472,3.07185 4.36729,4.612183 1.00605,1.138208 2.05652,2.262603 3.27085,3.185411 1.40406,1.067004 2.97411,1.926855 4.49494,2.811407 0.47084,0.216932 0.93802,0.442005 1.41253,0.650793 1.3147,0.578482 1.62063,0.661934 2.97436,1.21321 1.40261,0.571185 2.78485,1.187235 4.16468,1.810813 1.89586,0.900867 3.73898,1.906238 5.51258,3.027749 1.40867,0.910571 2.89029,1.713905 4.24437,2.707841 0.37109,0.272391 0.73206,0.5583 1.09809,0.837449 2.12465,1.638054 3.98318,3.572366 5.81166,5.524786 1.71933,2.01079 3.71196,3.74865 5.69271,5.49165 1.63176,1.47925 3.31012,2.93609 4.70864,4.64686 0.36373,0.44495 0.89526,1.19533 1.24358,1.67864 0.38777,0.62198 0.97031,1.11098 1.33962,1.74529 0.13005,0.22338 0.21863,0.4702 0.31455,0.70866 0.19486,0.78454 0.57453,1.49847 0.8331,2.26042 0.21188,0.65129 0.34713,1.31695 0.4159,1.99728 0.0493,0.57772 0.0476,1.15793 0.0442,1.73721 0.0256,0.40334 -0.0392,0.7789 -0.26663,1.11677 -0.23891,0.24088 -0.34656,0.56762 -0.53575,0.84185 0,0 3.62088,-1.60005 3.62088,-1.60005 v 0 c 0.16454,-0.29984 0.36282,-0.57692 0.52469,-0.87745 0.14978,-0.41641 0.21475,-0.8323 0.17671,-1.27643 -0.008,-0.58999 -0.0199,-1.18099 -0.0783,-1.76853 -0.0901,-0.70353 -0.23544,-1.39624 -0.46933,-2.06751 -0.27379,-0.76215 -0.63244,-1.49034 -0.84652,-2.27407 -0.0991,-0.24519 -0.21686,-0.56457 -0.3545,-0.79238 -0.38421,-0.63596 -1.02907,-1.082 -1.44188,-1.69684 -0.7316,-0.92813 -1.45814,-1.85857 -2.28687,-2.70439 -1.22558,-1.25084 -2.58024,-2.37171 -3.81823,-3.60987 -0.3958,-0.37278 -0.7916,-0.74555 -1.1874,-1.11833 -0.34084,-0.29438 -0.69042,-0.57894 -1.02252,-0.88316 -1.19978,-1.09902 -2.28395,-2.31652 -3.35987,-3.53424 -1.87418,-1.938193 -3.85133,-3.775391 -5.90227,-5.525297 -0.84791,-0.733753 -0.9813,-0.900073 -1.82925,-1.475029 -1.12304,-0.761478 -2.36113,-1.345509 -3.45683,-2.151168 -0.25499,-0.173908 -0.50353,-0.357653 -0.76495,-0.521724 -0.46642,-0.292735 -1.06242,-0.582705 -1.54391,-0.833985 -1.10023,-0.574183 -2.20272,-1.143447 -3.33186,-1.659837 -0.385,-0.171921 -2.41292,-1.079685 -2.7837,-1.236139 -1.91769,-0.80918 -3.87824,-1.518724 -5.76567,-2.399911 -1.53141,-0.835982 -3.08753,-1.660263 -4.46803,-2.738998 -1.18708,-0.927592 -2.19501,-2.065787 -3.19976,-3.17904 -0.54354,-0.623425 -1.07211,-1.259835 -1.61783,-1.881349 -0.85354,-0.97209 -1.78785,-1.87194 -2.70026,-2.787436 -1.4644,-1.439981 -2.92827,-2.883426 -4.48252,-4.22739 -0.80088,-0.695217 -1.59129,-1.409288 -2.46824,-2.009847 -0.30583,-0.209441 -1.37317,-0.845968 -1.65698,-1.018752 -0.30503,-0.185705 -0.60894,-0.373242 -0.91341,-0.559863 -0.78502,-0.462407 -1.61321,-0.874824 -2.36675,-1.388364 -0.73581,-0.501452 -1.42605,-1.078309 -2.08592,-1.674072 -1.38925,-1.208444 -2.789322,-2.414828 -4.312547,-3.453542 -1.936678,-1.269937 -3.93679,-2.434477 -6.015177,-3.459242 -2.105819,-1.056426 -4.263514,-1.982558 -6.504162,-2.718697 -0.401693,-0.14155 -2.237409,-0.791541 -2.660706,-0.928579 -0.38118,-0.123405 -0.769882,-0.222599 -1.15158,-0.34439 -1.2944,-0.413001 -2.561765,-0.905721 -3.847081,-1.345065 -1.980809,-0.788683 -3.949621,-1.615178 -5.821776,-2.641121 -1.274842,-0.639186 -2.481672,-1.397688 -3.638957,-2.230675 -0.885071,-0.69791 -1.758543,-1.415294 -2.571732,-2.196 C 65.213938,43.15624 64.692013,42.112805 63.751507,41.432898 62.96443,40.830582 62.164898,40.271805 61.268054,39.837833 59.739947,39.098402 58.093149,38.63681 56.488499,38.103717 54.844296,37.64735 53.82342,37.318214 52.131494,37.035001 51.388332,36.910602 50.637061,36.83904 49.887372,36.763338 c -2.420035,-0.244364 -4.857557,-0.400841 -7.29058,-0.315526 -0.58714,0.03002 -1.177102,0.02519 -1.761419,0.09006 -0.488257,0.05422 -1.250635,0.313489 -1.715489,0.473453 -0.78962,0.27172 -1.574803,0.565828 -2.322209,0.940475 -2.337882,1.145622 -4.576894,2.47473 -6.829393,3.778541 0,0 3.690266,-1.431401 3.690266,-1.431401 z" />
    <path
       style="fill:#000000;stroke-width:0.703333"
       d="m 393.73775,236.56339 c -6.27962,-4.11589 -11.39966,-11.00705 -11.81821,-11.42561 -0.9428,-0.94279 12.48965,-8.17988 47.72909,-27.91538 17.50841,-9.8054 69.29103,-35.59166 88.09248,-43.92913 23.23757,-10.30466 93.32,-38.25552 94.8233,-37.75442 0.35957,0.11986 -11.04016,12.80184 -21.78676,23.83031 -22.37591,22.9628 -23.6362,23.73021 -36.74398,40.816 -13.4527,17.5354 -22.04725,23.94131 -23.05542,23.55444 -0.49306,-0.18921 5.86399,-5.35747 4.45598,-4.76916 -1.40801,0.58831 -8.34641,1.72143 -15.20376,2.51805 -26.14516,3.03728 -40.73519,6.50748 -61.34956,14.5918 -9.78769,3.83843 -29.54506,13.59057 -40.67711,20.21761 -4.48138,2.66781 -9.36074,7.21235 -9.71479,7.41261 -0.35404,0.20027 -8.47165,-3.03123 -14.75126,-7.14712 z"
       id="path439"
       sodipodi:nodetypes="ssssssssssssss"
       transform="scale(0.26458333)" />
    <path
       style="fill:#000000;stroke-width:0.703333"
       d="m 210.80262,408.71286 c -1.86904,-1.74826 -4.95205,-5.48738 -6.85114,-8.30915 -1.89908,-2.82177 -3.82878,-5.45945 -4.28821,-5.86152 -1.87645,-1.64215 9.78435,-21.78607 25.78518,-40.25062 8.82676,-10.18585 40.07513,-39.23344 51.04315,-49.89146 23.41982,-22.75786 48.41704,-40.01961 78.41576,-61.33586 6.5557,-4.65829 11.52135,-7.78028 11.52699,-4.76897 0,0 4.9517,3.06919 9.42929,6.78442 4.4776,3.71523 8.5243,6.97557 9.7525,7.70108 1.22819,0.72551 3.84941,3.263 3.84941,3.51139 0,0.24839 -5.63466,4.75801 -9.78614,8.19784 -4.15148,3.43983 -17.95485,15.33099 -29.76235,25.9689 -25.57609,23.04263 -39.80717,32.72329 -68.08648,55.56559 -7.59008,6.1308 -15.58259,12.11103 -18.29502,14.76417 -2.71243,2.65314 -9.88309,11.78689 -16.69461,20.29722 -14.61544,18.26055 -26.94399,32.50209 -29.36017,32.8228 -1.18214,0.15692 -4.26339,-2.93709 -6.67816,-5.19583 z"
       id="path478"
       sodipodi:nodetypes="sssssssssssssssss"
       transform="scale(0.26458333)" />
    <path
       style="fill:#000000;stroke-width:0.703333"
       d="m 698.76147,491.49374 c -8.47632,-1.42801 -18.14472,-4.5355 -32.47124,-10.43651 -20.38092,-8.39478 -26.11618,-10.09997 -35.84202,-10.65644 l -7.48891,-0.42848 1.02684,-2.45758 c 1.53466,-3.67296 0.60543,-11.64518 -2.39487,-20.54652 -2.16976,-6.43732 -3.23755,-8.3778 -8.321,-15.12166 -7.1514,-9.4873 -11.10084,-13.70776 -21.06377,-22.50921 -4.25516,-3.7591 -14.69966,-13.86659 -23.20999,-22.46109 -17.84207,-18.01852 -21.78334,-21.29034 -37.62833,-31.23696 -12.81613,-8.04527 -27.52923,-15.50497 -42.55165,-21.57414 -19.39389,-7.83528 -29.72033,-14.3179 -40.45723,-25.39782 -32.46128,-33.49833 -40.22249,-40.69902 -50.82498,-47.1544 l -5.98446,-3.64366 -5.08674,4.28177 c -2.79771,2.35498 -13.67045,12.03326 -24.16164,21.50729 -21.77782,19.66638 -26.50915,23.52278 -58.46396,47.65264 -12.76418,9.63855 -25.43051,19.7441 -28.1474,22.45678 -2.7169,2.71268 -9.46239,10.54573 -14.98997,17.40676 -11.00218,13.65629 -24.88884,29.40375 -31.87269,36.1436 -5.14718,4.96735 -16.88156,12.52345 -20.50382,13.20299 -4.09111,0.7675 -7.64631,-1.16531 -11.95571,-6.49978 -5.23083,-6.4751 -11.11149,-14.23894 -10.64172,-14.99906 0.4361,-0.70561 27.35693,-24.28899 13.55468,-3.39122 -0.81767,-2.10201 11.49755,-2.21943 12.97586,0.0752 5.22353,8.10785 0.36542,16.79866 3.9149,16.79866 2.07996,0 15.61708,-14.56976 28.42656,-30.59499 19.60342,-24.52476 17.23494,-22.32171 51.50504,-47.90751 26.04796,-19.44721 30.78874,-23.34401 55.91498,-45.96079 11.41158,-10.27186 24.15071,-21.49769 28.30916,-24.94631 4.15846,-3.44861 7.56083,-6.52385 7.56083,-6.83388 0,-0.31002 -0.95833,-1.05926 -2.12962,-1.66495 -1.1713,-0.60571 -6.47267,-4.73649 -11.78083,-9.17952 -8.02489,-6.71698 -9.93857,-8.00847 -11.35653,-7.66422 -1.44833,0.35162 -1.57462,0.25652 -0.838,-0.63105 0.72781,-0.87696 0.21017,-1.48855 -3.21801,-3.80203 -15.11899,-10.203 -32.26414,-18.24645 -54.37365,-25.5088 -16.73883,-5.49823 -29.34595,-10.37499 -39.03499,-15.09975 -15.46757,-7.54259 -19.02865,-10.2997 -35.2766,-27.31243 -5.20957,-5.45478 -11.70477,-8.9351 -24.35145,-13.04822 -10.46907,-3.4049 -20.03231,-5.38487 -30.75026,-6.36653 -18.50616,-1.69497 -31.70893,-0.50879 -41.59402,3.73695 -3.26636,1.40292 -6.31541,2.55077 -6.77567,2.55077 -0.46025,0 -1.03052,0.87038 -1.26726,1.93417 -0.23674,1.06379 -0.56787,2.44792 -0.73584,3.07585 -0.23737,0.88738 -10.34144,6.24331 -11.77813,6.24331 -0.1717,0 0.13786,-1.72342 0.68792,-3.82983 1.9541,-7.48308 3.11906,-18.52774 3.52786,-33.44682 0.58439,-21.32736 -1.20064,-31.289152 -7.20558,-40.212448 -1.55937,-2.317211 -2.19218,-3.862616 -1.75904,-4.295759 0.37209,-0.372089 0.54832,-1.033583 0.39164,-1.469987 -0.15669,-0.436404 2.19134,-2.423285 5.21785,-4.41529 l 5.50274,-3.621829 14.70627,7.539714 c 24.07751,12.344227 71.2213,37.554249 88.55625,47.355219 57.26491,32.3769 125.8944,74.3384 172.45881,105.4449 7.42803,4.96216 13.66778,9.02211 13.8661,9.02211 0.19832,0 3.19842,-1.72079 6.6669,-3.82398 19.95907,-12.10265 39.90203,-21.47369 58.35586,-27.42095 15.3605,-4.95036 26.18411,-7.16358 46.82453,-9.57471 6.94042,-0.81075 13.7047,-1.92776 15.03172,-2.48222 3.02673,-1.26465 2.44348,-4.99461 1.92014,-3.63082 -1.17202,3.05424 2.15363,2.70853 10.00302,-7.48906 17.30019,-22.47565 21.95037,-26.47161 41.38498,-46.50656 10.88201,-11.21817 20.77571,-21.54544 21.986,-22.94949 l 2.20054,-2.55283 -12.10357,4.49822 c -19.95661,7.41676 -68.80875,27.10685 -84.60178,34.09915 -8.1235,3.59665 -27.88902,13.10934 -43.92338,21.13931 -16.03437,8.02997 -29.26579,14.48754 -29.40316,14.35017 -0.76742,-0.76742 57.18069,-29.95462 79.30487,-39.94416 25.05843,-11.31441 91.75862,-38.86593 99.16998,-40.96366 1.70487,-0.48255 1.69417,-0.44183 -0.35167,1.33903 l -2.11,1.83672 2.74549,-1.08463 c 1.51002,-0.59654 2.89072,-0.93939 3.06822,-0.76189 0.1775,0.1775 -9.77303,10.54702 -22.11229,23.04339 -23.31187,23.60868 -29.35745,30.49171 -41.99173,47.80851 -4.14032,5.67483 -8.71192,11.38758 -10.15909,12.69502 -2.92109,2.63902 -14.77088,9.34794 -15.39994,8.71887 -0.22017,-0.22017 -2.69358,-0.16029 -2.05797,-0.4042 0.63562,-0.24391 4.27671,-2.1392 4.27671,-2.4925 0,-0.35332 -1.59997,0.98398 -3.17938,1.78972 -1.76842,0.90217 -2.73385,1.82421 -2.5129,2.39997 0.69971,1.82343 -5.41164,3.20729 -20.35341,4.60882 -16.97981,1.59271 -23.81169,2.70869 -36.52942,5.96705 -12.88436,3.30106 -25.5416,8.00381 -38.78975,14.41219 -11.36078,5.49543 -25.07863,13.74088 -24.69203,14.84176 0.11232,0.31983 14.76321,10.46425 32.55754,22.54316 29.98519,20.35416 78.84846,56.16254 117.5932,86.17564 31.6326,24.50377 79.97932,66.66951 129.98006,113.36254 10.83133,10.1148 20.14171,18.39245 20.68972,18.39479 0.54801,0.002 0.7847,0.21592 0.52596,0.47466 -0.25873,0.25873 0.0334,1.02716 0.64924,1.70763 1.03862,1.14766 0.96314,1.31813 -1.04287,2.35549 -1.72175,0.89035 -2.43515,0.94801 -3.50012,0.28293 -1.12799,-0.70444 -1.81266,-0.48598 -4.36915,1.39409 -1.66736,1.22619 -3.20658,2.18633 -3.4205,2.13365 -0.21392,-0.0527 -1.1802,-0.22908 -2.14728,-0.39201 z M 687.7857,467.88709 c -32.52902,-31.53711 -40.34232,-38.8013 -71.35525,-66.34045 -35.88883,-31.86889 -48.07665,-41.66421 -102.29393,-82.21336 -31.00768,-23.19066 -49.61707,-36.49341 -73.62278,-52.62853 -17.66937,-11.87623 -32.38661,-21.58845 -32.70499,-21.58269 -0.31837,0.006 -1.8268,1.0662 -3.35206,2.35654 l -2.7732,2.34608 1.7182,1.0634 c 8.04193,4.97721 14.34034,9.38477 17.89486,12.52264 11.71618,10.34285 22.66082,21.18243 32.13762,31.82912 15.04201,16.89889 21.73936,21.54109 44.87736,31.10626 28.06787,11.60319 49.06061,23.41688 62.91716,35.40674 3.87123,3.34971 14.16567,13.22623 22.87654,21.94782 8.71086,8.72159 19.75504,19.48259 24.54262,23.91333 7.27898,6.73645 12.98733,12.99308 21.35834,23.40982 0.67451,0.83933 2.49176,5.18565 4.03834,9.65847 2.47614,7.16113 2.82043,8.93809 2.88279,14.87838 l 0.0708,6.74598 5.681,0.50288 c 7.69753,0.68138 12.20119,2.06815 29.83593,9.18702 13.7297,5.54246 26.47314,9.98022 28.98564,10.09393 0.53949,0.0244 -5.63226,-6.3671 -13.715,-14.20338 z M 405.45891,243.58954 c 0.0162,-0.59953 -24.94643,-16.7646 -25.88847,-16.7646 -0.38958,0 -0.81382,-0.27363 -0.94277,-0.60806 -0.60307,-1.56412 -58.96368,-37.04595 -92.37108,-56.15936 -55.32668,-31.65411 -93.92534,-51.57591 -150.40312,-77.627066 -7.49224,-3.455898 -10.30827,-4.475053 -9.97387,-3.609663 1.03261,2.672262 1.8357,8.674248 2.23175,16.679179 0.42064,8.50197 -0.74698,34.96896 -1.83067,41.49666 -0.3211,1.93416 -0.51643,3.59185 -0.43406,3.68376 0.0824,0.0919 3.13407,-1.42352 6.78155,-3.3676 3.64749,-1.94408 9.48029,-4.70359 12.96179,-6.13224 6.20377,-2.54576 6.54738,-2.60276 17.23166,-2.85862 20.40636,-0.48866 36.27597,1.59574 53.14525,6.98039 16.10706,5.14135 23.93282,9.58568 29.40806,16.70116 11.25231,14.62323 29.22963,24.71972 66.54354,37.3724 19.88267,6.74197 28.81225,10.36246 39.82698,16.14776 8.16083,4.28635 22.09994,12.78579 24.19042,14.75024 3.25547,3.0592 16.69066,14.04873 19.5391,15.98229 l 3.24029,2.19958 3.36551,-2.19958 c 1.85103,-1.20976 3.3712,-2.40974 3.37814,-2.66663 z"
       id="path517"
       sodipodi:nodetypes="ssscssssssssscssssssssscsssssssssssssssssssssssssssscsssssssssssscssssssscssssssssssssssssscssssssssssscscsssssssssscssssssssssssssssssssssscsss"
       transform="scale(0.26458333)" />
    <path
       style="fill:#000000;stroke-width:0.703333"
       d="m 687.65678,478.70205 c -4.17358,-0.93439 -9.6065,-3.95354 -16.15675,-6.66114 -14.05869,-5.81129 -21.52226,-7.04594 -28.62303,-8.99406 l -6.47532,0.16779 -1.09514,-5.36614 c -0.65791,-3.22373 0.40641,-8.55437 0.0388,-10.19457 -0.9365,-4.17883 -4.92093,-14.54506 -6.27325,-16.321 -6.04002,-7.93211 -14.60156,-17.69185 -24.39992,-26.73393 -6.49348,-5.99228 -16.87032,-16.35884 -23.05965,-22.71445 -14.29253,-14.67651 -26.77048,-24.71627 -34.53461,-29.37894 -3.34558,-2.00916 -7.84121,-5.39664 -9.77538,-6.72184 -5.06589,-3.4709 -21.8084,-12.09306 -36.88103,-18.297 -22.00033,-9.05542 -31.2684,-13.97749 -41.57488,-25.31239 -10.09752,-11.10509 -34.57673,-35.55085 -40.09968,-39.96186 -2.70783,-2.16266 -7.70935,-5.48672 -10.62478,-7.56419 l -7.81143,-5.56625 5.1564,-1.25275 c 1.63129,-0.39632 3.1488,-2.25376 3.56946,-1.99974 0.42065,0.25403 15.76084,10.12735 33.36175,21.96869 22.09125,14.8623 42.3638,29.82329 66.6399,47.96405 63.14833,47.18876 76.56041,57.64001 126.45405,102.65113 22.75291,20.52635 68.46864,64.69361 67.2254,64.73105 -0.38684,0.0117 -4.99695,-2.18932 -9.17053,-3.12371 z"
       id="path556"
       sodipodi:nodetypes="ssscssssssssssscssssssss"
       transform="scale(0.26458333)" />
    <path
       style="fill:#000000;stroke-width:0.703333"
       d="m 367.81824,224.56747 c -6.18007,-3.79229 -17.45108,-4.51295 -24.56743,-7.80797 -9.51612,-4.40618 -13.54638,-10.72728 -30.47357,-16.43496 -37.47615,-12.63658 -56.4022,-21.10549 -67.96993,-35.86296 -6.16851,-7.86946 -13.99673,-13.21271 -32.16284,-18.55212 -14.76224,-4.33895 -27.50854,-6.41188 -46.90037,-6.4161 -9.91864,-0.002 -11.88349,0.30743 -17.12867,1.94646 -3.21134,1.00348 -9.43234,1.56537 -13.82444,3.832 l -10.22088,13.23317 0.99077,-11.71687 c 0.12194,-1.44202 0.7674,-10.39736 1.25087,-20.07352 0.84995,-17.01084 -0.25958,-32.384832 -1.80446,-36.387288 -0.43259,-1.120759 0.97476,-4.096168 2.36861,-3.653777 3.04181,0.965434 41.02096,20.354155 64.34641,31.906025 52.43447,25.96804 118.31536,63.87832 180.33272,102.87682 6.03736,3.79649 36.5928,20.6413 34.52645,22.77314 -4.02578,4.15338 -31.51396,-15.21365 -33.29256,-16.30506 z"
       id="path595"
       sodipodi:nodetypes="ssssscsscsssssssss"
       transform="scale(0.26458333)" />
    <path
       style="fill:#000000;stroke-width:0.703333"
       d="m 395.8705,249.31106 c -5.1249,-3.84705 -23.91745,-19.0205 -24.20016,-19.73133 -0.12021,-0.30226 5.54988,-0.90856 6.36976,-1.34734 1.65261,-0.88446 1.3907,-1.02681 17.23312,9.36659 4.642,3.04538 17.09385,10.09583 17.18537,10.34898 0.18181,0.5029 -12.2615,1.35144 -13.13134,1.32066 -0.29555,-0.0105 -1.28056,1.67602 -3.45675,0.0424 z"
       id="path634"
       sodipodi:nodetypes="sssssss"
       transform="scale(0.26458333)" />
  </g>
</svg>
